<?xml version="1.0" encoding="utf-8"?>
<svg id="master-artboard" viewBox="0 0 1400 980" version="1.1" xmlns="http://www.w3.org/2000/svg" x="0px" y="0px" style="enable-background:new 0 0 336 235.2;" width="1400px" height="980px"><g transform="matrix(4.900000095367432, 0, 0, 4.900000095367432, -2494.800048828125, 19.60000801086423)"><g id="g-1" transform="matrix(1, 0, 0, 1, 0, 0)">
	<g id="g-2">
		<path class="st0" d="M652,46c27.6,0,50,22.4,50,50s-22.4,50-50,50s-50-22.4-50-50S624.4,46,652,46z" style="fill: rgb(255, 97, 79);"/>
	</g>
</g></g><g transform="matrix(4.498438358306885, 0, 0, 4.498438358306885, -2232.98193359375, 58.14992154358025)"><g id="g-5" transform="matrix(1, 0, 0, 1, 0, 0)">
	<g id="g-6">
		<path class="st0" d="M652,46c27.6,0,50,22.4,50,50s-22.4,50-50,50s-50-22.4-50-50S624.4,46,652,46z" style="fill: rgb(112, 150, 255); stroke: rgb(0, 0, 0); stroke-width: 9; fill-opacity: 0;"/>
	</g>
</g></g></svg>